# xmcd
#
# Track frame offsets:
#	150
#	12179
#	26007
#	45407
#	61800
#	78921
#	96812
#	109102
#	125994
#	142857
#	160584
#	177433
#	196274
#	214502
#	231968
#	250984
#	267945
#	282854
#	303012
#	315361
#
# Disc length: 4447 seconds
#
# Revision: 0
# Processed by: cddbd v1.5.2PL0 Copyright (c) Steve Scherf et al.
# Submitted via: SynApp - FreeCDDB Version: 2.4
#
DISCID=03115d14
DTITLE=Bruno and Marrone+Leonardo - ACUSTICO AO VIVO+Cilada de Amor+Quero Colo
DYEAR=2007
DGENRE=Country
TTITLE0=Bruno and Marrone - 02 Dormi na praça
TTITLE1=Bruno and Marrone - 03 AMOR DE CARNAVAL
TTITLE2=Bruno and Marrone - 04 MEU JEITO DE SENTIR
TTITLE3=Bruno and Marrone - 05 SEU AMOR AINDA É TUDO
TTITLE4=Bruno and Marrone - 07 Vida Vazia
TTITLE5=Bruno and Marrone - 13 SÓ PRO MEU PRAZER
TTITLE6=Bruno and Marrone - 01 Feriado Nacional
TTITLE7=Bruno and Marrone - 03 PARABÉNS PRO NOSSO AMOR
TTITLE8=Bruno and Marrone - 06 Vida Vazia
TTITLE9=Bruno and Marrone - 08 Dor e Saudade
TTITLE10=Bruno and Marrone - 10 Como eu te amo
TTITLE11=Bruno and Marrone - 13 Agarrada em mim
TTITLE12=Bruno and Marrone - 14 Mais uma vez
TTITLE13=Leonardo - 01 Fiquei Sozinho
TTITLE14=Leonardo - 02 Longe de Você
TTITLE15=Leonardo - 03 Não me jogue fora
TTITLE16=Leonardo - 04 Água de Coco
TTITLE17=Leonardo - 05 Como Esquecer de Você
TTITLE18=Leonardo - 10 Rola Pinga
TTITLE19=Leonardo - 12 Quero Colo
EXTD=
EXTT0=
EXTT1=
EXTT2=
EXTT3=
EXTT4=
EXTT5=
EXTT6=
EXTT7=
EXTT8=
EXTT9=
EXTT10=
EXTT11=
EXTT12=
EXTT13=
EXTT14=
EXTT15=
EXTT16=
EXTT17=
EXTT18=
EXTT19=
PLAYORDER=
